<svg width="16" height="14" viewBox="0 0 16 14" fill="none" xmlns="http://www.w3.org/2000/svg">
<g clip-path="url(#clip0)">
<path d="M13.6 0.599976H2.4C1.76348 0.599976 1.15303 0.852832 0.702944 1.30292C0.252856 1.75301 0 2.36346 0 2.99998V11C0 11.6365 0.252856 12.2469 0.702944 12.697C1.15303 13.1471 1.76348 13.4 2.4 13.4H13.6C14.2365 13.4 14.847 13.1471 15.2971 12.697C15.7471 12.2469 16 11.6365 16 11V2.99998C16 2.36346 15.7471 1.75301 15.2971 1.30292C14.847 0.852832 14.2365 0.599976 13.6 0.599976ZM13.064 2.19998L8 5.99998L2.936 2.19998H13.064ZM13.6 11.8H2.4C2.18783 11.8 1.98434 11.7157 1.83431 11.5657C1.68429 11.4156 1.6 11.2121 1.6 11V3.19998L7.52 7.63998C7.65848 7.74383 7.8269 7.79998 8 7.79998C8.1731 7.79998 8.34152 7.74383 8.48 7.63998L14.4 3.19998V11C14.4 11.2121 14.3157 11.4156 14.1657 11.5657C14.0157 11.7157 13.8122 11.8 13.6 11.8Z" fill="#FB9748"/>
</g>
<defs>
<clipPath id="clip0">
<rect width="16" height="12.8" fill="white" transform="translate(0 0.599976)"/>
</clipPath>
</defs>
</svg>
