<svg width="40" height="40" viewBox="0 0 40 40" fill="none" xmlns="http://www.w3.org/2000/svg">
<g clip-path="url(#clip0)">
<path d="M10.625 34.375V38.75C10.625 39.0815 10.7567 39.3994 10.9911 39.6339C11.2256 39.8683 11.5435 40 11.875 40H28.125C28.4565 40 28.7744 39.8683 29.0089 39.6339C29.2433 39.3994 29.375 39.0815 29.375 38.75V34.375C29.374 33.5465 29.0445 32.7522 28.4586 32.1664C27.8728 31.5805 27.0785 31.251 26.25 31.25H13.75C12.9215 31.251 12.1272 31.5805 11.5414 32.1664C10.9555 32.7522 10.626 33.5465 10.625 34.375ZM26.25 33.75C26.4157 33.7502 26.5745 33.8161 26.6917 33.9333C26.8089 34.0505 26.8748 34.2093 26.875 34.375V37.5H13.125V34.375C13.1252 34.2093 13.1911 34.0505 13.3083 33.9333C13.4255 33.8161 13.5843 33.7502 13.75 33.75H26.25Z" fill="url(#paint0_linear)"/>
<path d="M16.5625 7.1875C16.5625 5.76595 16.141 4.37632 15.3512 3.19434C14.5614 2.01236 13.4389 1.09112 12.1255 0.547119C10.8122 0.00311427 9.36703 -0.139222 7.97279 0.138109C6.57855 0.41544 5.29786 1.09998 4.29267 2.10517C3.28748 3.11036 2.60294 4.39105 2.32561 5.78529C2.04828 7.17953 2.19061 8.6247 2.73462 9.93804C3.27862 11.2514 4.19986 12.3739 5.38184 13.1637C6.56382 13.9535 7.95345 14.375 9.375 14.375C11.2806 14.3729 13.1075 13.615 14.455 12.2675C15.8025 10.92 16.5604 9.0931 16.5625 7.1875ZM9.375 11.875C8.4479 11.875 7.54162 11.6001 6.77077 11.085C5.99991 10.5699 5.3991 9.83786 5.04432 8.98133C4.68953 8.1248 4.5967 7.1823 4.77757 6.27302C4.95844 5.36373 5.40488 4.5285 6.06044 3.87294C6.716 3.21738 7.55123 2.77094 8.46052 2.59007C9.3698 2.4092 10.3123 2.50203 11.1688 2.85682C12.0254 3.2116 12.7574 3.81241 13.2725 4.58327C13.7876 5.35412 14.0625 6.2604 14.0625 7.1875C14.0611 8.43029 13.5669 9.62179 12.6881 10.5006C11.8093 11.3794 10.6178 11.8736 9.375 11.875Z" fill="url(#paint1_linear)"/>
<path d="M37.8125 7.1875C37.8125 5.76595 37.391 4.37632 36.6012 3.19434C35.8114 2.01236 34.6889 1.09112 33.3755 0.547119C32.0622 0.00311427 30.617 -0.139222 29.2228 0.138109C27.8286 0.41544 26.5479 1.09998 25.5427 2.10517C24.5375 3.11036 23.8529 4.39105 23.5756 5.78529C23.2983 7.17953 23.4406 8.6247 23.9846 9.93804C24.5286 11.2514 25.4499 12.3739 26.6318 13.1637C27.8138 13.9535 29.2035 14.375 30.625 14.375C32.5306 14.3729 34.3575 13.615 35.705 12.2675C37.0525 10.92 37.8104 9.0931 37.8125 7.1875ZM30.625 11.875C29.6979 11.875 28.7916 11.6001 28.0208 11.085C27.2499 10.5699 26.6491 9.83786 26.2943 8.98133C25.9395 8.1248 25.8467 7.1823 26.0276 6.27302C26.2084 5.36373 26.6549 4.5285 27.3104 3.87294C27.966 3.21738 28.8012 2.77094 29.7105 2.59007C30.6198 2.4092 31.5623 2.50203 32.4188 2.85682C33.2754 3.2116 34.0074 3.81241 34.5225 4.58327C35.0376 5.35412 35.3125 6.2604 35.3125 7.1875C35.3111 8.43029 34.8169 9.62179 33.9381 10.5006C33.0593 11.3794 31.8678 11.8736 30.625 11.875Z" fill="url(#paint2_linear)"/>
<path d="M36.875 14.375H24.375C23.6347 14.3769 22.9191 14.6418 22.356 15.1224C21.7929 15.603 21.4188 16.2681 21.3006 16.9989C20.2393 16.8065 19.1484 16.8551 18.1084 17.1412C17.0685 17.4274 16.1062 17.9436 15.2927 18.6519C14.4792 19.3601 13.8354 20.2421 13.4088 21.2328C12.9822 22.2234 12.7838 23.2973 12.8283 24.375H2.5V17.5C2.50022 17.3343 2.56613 17.1755 2.6833 17.0583C2.80046 16.9411 2.95931 16.8752 3.125 16.875H15C15.3315 16.875 15.6495 16.7433 15.8839 16.5089C16.1183 16.2745 16.25 15.9565 16.25 15.625C16.25 15.2935 16.1183 14.9755 15.8839 14.7411C15.6495 14.5067 15.3315 14.375 15 14.375H3.125C2.2965 14.376 1.50221 14.7055 0.916366 15.2914C0.330525 15.8772 0.000972605 16.6715 0 17.5L0 25.625C1.65745e-05 25.9565 0.131718 26.2744 0.366135 26.5089C0.600552 26.7433 0.918484 26.875 1.25 26.875H13.3866C13.828 27.9171 14.5094 28.8403 15.3752 29.5692C16.241 30.2981 17.2667 30.8122 18.3689 31.0695C19.471 31.3268 20.6183 31.3202 21.7174 31.05C22.8165 30.7799 23.8362 30.254 24.6935 29.5151C25.5507 28.7762 26.2213 27.8452 26.6506 26.798C27.0799 25.7508 27.2557 24.617 27.1637 23.4889C27.0718 22.3609 26.7146 21.2706 26.1214 20.3067C25.5282 19.3429 24.7156 18.5328 23.75 17.9425C23.6996 17.4893 23.7936 16.8666 24.375 16.875H36.875C37.0407 16.8752 37.1995 16.9411 37.3167 17.0583C37.4339 17.1755 37.4998 17.3343 37.5 17.5V24.375H29.375C29.0435 24.375 28.7255 24.5067 28.4911 24.7411C28.2567 24.9755 28.125 25.2935 28.125 25.625C28.125 25.9565 28.2567 26.2745 28.4911 26.5089C28.7255 26.7433 29.0435 26.875 29.375 26.875H38.75C39.0815 26.875 39.3994 26.7433 39.6339 26.5089C39.8683 26.2744 40 25.9565 40 25.625V17.5C39.999 16.6715 39.6695 15.8772 39.0836 15.2914C38.4978 14.7055 37.7035 14.376 36.875 14.375ZM20 28.75C19.0729 28.75 18.1666 28.4751 17.3958 27.96C16.6249 27.4449 16.0241 26.7129 15.6693 25.8563C15.3145 24.9998 15.2217 24.0573 15.4026 23.148C15.5834 22.2387 16.0299 21.4035 16.6854 20.7479C17.341 20.0924 18.1762 19.6459 19.0855 19.4651C19.9948 19.2842 20.9373 19.377 21.7938 19.7318C22.6504 20.0866 23.3824 20.6874 23.8975 21.4583C24.4126 22.2291 24.6875 23.1354 24.6875 24.0625C24.6861 25.3053 24.1918 26.4968 23.3131 27.3756C22.4343 28.2543 21.2428 28.7486 20 28.75Z" fill="url(#paint3_linear)"/>
<path d="M30.625 20.625C31.3154 20.625 31.875 20.0654 31.875 19.375C31.875 18.6846 31.3154 18.125 30.625 18.125C29.9346 18.125 29.375 18.6846 29.375 19.375C29.375 20.0654 29.9346 20.625 30.625 20.625Z" fill="url(#paint4_linear)"/>
</g>
<defs>
<linearGradient id="paint0_linear" x1="20" y1="31.25" x2="20" y2="40" gradientUnits="userSpaceOnUse">
<stop stop-color="#FCD302"/>
<stop offset="1" stop-color="#FA7073"/>
</linearGradient>
<linearGradient id="paint1_linear" x1="9.375" y1="0" x2="9.375" y2="14.375" gradientUnits="userSpaceOnUse">
<stop stop-color="#FCD302"/>
<stop offset="1" stop-color="#FA7073"/>
</linearGradient>
<linearGradient id="paint2_linear" x1="30.625" y1="0" x2="30.625" y2="14.375" gradientUnits="userSpaceOnUse">
<stop stop-color="#FCD302"/>
<stop offset="1" stop-color="#FA7073"/>
</linearGradient>
<linearGradient id="paint3_linear" x1="20" y1="14.375" x2="20" y2="31.2577" gradientUnits="userSpaceOnUse">
<stop stop-color="#FCD302"/>
<stop offset="1" stop-color="#FA7073"/>
</linearGradient>
<linearGradient id="paint4_linear" x1="30.625" y1="18.125" x2="30.625" y2="20.625" gradientUnits="userSpaceOnUse">
<stop stop-color="#FCD302"/>
<stop offset="1" stop-color="#FA7073"/>
</linearGradient>
<clipPath id="clip0">
<rect width="40" height="40" fill="white"/>
</clipPath>
</defs>
</svg>
