<svg width="40" height="40" viewBox="0 0 40 40" fill="none" xmlns="http://www.w3.org/2000/svg">
<path d="M18.2422 9.375C18.2422 7.89164 17.8023 6.4416 16.9782 5.20823C16.1541 3.97486 14.9828 3.01356 13.6123 2.44591C12.2419 1.87825 10.7339 1.72972 9.27901 2.01911C7.82416 2.3085 6.48778 3.02281 5.43889 4.0717C4.39 5.1206 3.67569 6.45697 3.3863 7.91183C3.09691 9.36668 3.24544 10.8747 3.81309 12.2451C4.38075 13.6156 5.34205 14.7869 6.57541 15.611C7.80878 16.4351 9.25883 16.875 10.7422 16.875C12.7306 16.8728 14.637 16.0819 16.043 14.6759C17.4491 13.2698 18.24 11.3634 18.2422 9.375ZM10.7422 14.375C9.75328 14.375 8.78659 14.0818 7.96434 13.5324C7.14209 12.9829 6.50123 12.2021 6.12279 11.2884C5.74435 10.3748 5.64534 9.36946 5.83826 8.39955C6.03119 7.42965 6.50739 6.53873 7.20666 5.83947C7.90592 5.14021 8.79683 4.664 9.76674 4.47108C10.7366 4.27815 11.742 4.37717 12.6556 4.75561C13.5692 5.13404 14.3501 5.77491 14.8995 6.59715C15.4489 7.4194 15.7422 8.3861 15.7422 9.375C15.7407 10.7006 15.2134 11.9715 14.276 12.9089C13.3387 13.8462 12.0678 14.3735 10.7422 14.375Z" fill="url(#paint0_linear)"/>
<path d="M39.375 9.375C39.375 7.89164 38.9351 6.4416 38.111 5.20823C37.2869 3.97486 36.1156 3.01356 34.7451 2.44591C33.3747 1.87825 31.8667 1.72972 30.4118 2.01911C28.957 2.3085 27.6206 3.02281 26.5717 4.0717C25.5228 5.1206 24.8085 6.45697 24.5191 7.91183C24.2297 9.36668 24.3782 10.8747 24.9459 12.2451C25.5136 13.6156 26.4749 14.7869 27.7082 15.611C28.9416 16.4351 30.3916 16.875 31.875 16.875C33.8634 16.8728 35.7698 16.0819 37.1758 14.6759C38.5819 13.2698 39.3728 11.3634 39.375 9.375ZM31.875 14.375C30.8861 14.375 29.9194 14.0818 29.0971 13.5324C28.2749 12.9829 27.634 12.2021 27.2556 11.2884C26.8772 10.3748 26.7781 9.36946 26.9711 8.39955C27.164 7.42965 27.6402 6.53873 28.3395 5.83947C29.0387 5.14021 29.9296 4.664 30.8995 4.47108C31.8695 4.27815 32.8748 4.37717 33.7884 4.75561C34.702 5.13404 35.4829 5.77491 36.0323 6.59715C36.5817 7.4194 36.875 8.3861 36.875 9.375C36.8735 10.7006 36.3462 11.9715 35.4089 12.9089C34.4715 13.8462 33.2006 14.3735 31.875 14.375Z" fill="url(#paint1_linear)"/>
<path d="M36.875 16.875H27.5C27.22 16.8749 26.948 16.9689 26.7279 17.142L21.9302 20.9122L15.7745 17.0651C15.576 16.9409 15.3465 16.875 15.1123 16.875H5.73731C4.9088 16.876 4.11451 17.2055 3.52867 17.7914C2.94283 18.3772 2.61328 19.1715 2.61231 20V25.625H1.25C0.918484 25.625 0.600552 25.7567 0.366135 25.9911C0.131718 26.2256 1.65745e-05 26.5435 0 26.875L0 31.875C1.65745e-05 32.2065 0.131718 32.5244 0.366135 32.7589C0.600552 32.9933 0.918484 33.125 1.25 33.125H6.36231V36.25C6.36285 36.7471 6.56057 37.2237 6.91208 37.5752C7.26359 37.9267 7.74019 38.1245 8.23731 38.125H13.2373C13.7344 38.1245 14.211 37.9267 14.5625 37.5752C14.914 37.2237 15.1118 36.7471 15.1123 36.25V26.1087L21.2872 28.1653C21.8959 28.363 22.5487 28.3811 23.1675 28.2175C23.7862 28.054 24.3448 27.7156 24.7763 27.243L27.5 26.1951V36.25C27.5005 36.7471 27.6983 37.2237 28.0498 37.5752C28.4013 37.9267 28.8779 38.1245 29.375 38.125H34.375C34.8721 38.1245 35.3487 37.9267 35.7002 37.5752C36.0517 37.2237 36.2495 36.7471 36.25 36.25V29.375H36.875C37.7035 29.374 38.4978 29.0445 39.0836 28.4586C39.6695 27.8728 39.999 27.0785 40 26.25V20C39.999 19.1715 39.6695 18.3772 39.0836 17.7914C38.4978 17.2055 37.7035 16.876 36.875 16.875ZM2.5 28.125H7.5V30.625H2.5V28.125ZM14.2572 23.1891C14.0693 23.1284 13.8698 23.1127 13.6748 23.1434C13.4798 23.1741 13.2947 23.2502 13.1346 23.3657C12.9744 23.4812 12.8437 23.6327 12.753 23.808C12.6623 23.9834 12.6141 24.1776 12.6123 24.375V35.625H8.86231V33.1137C9.1724 33.0867 9.46115 32.9445 9.67171 32.7153C9.88227 32.486 9.99938 32.1863 10 31.875V26.875C9.99998 26.5435 9.86828 26.2256 9.63387 25.9911C9.39945 25.7567 9.08152 25.625 8.75 25.625H5.11231V20C5.11247 19.8343 5.17837 19.6754 5.29555 19.5582C5.41272 19.4411 5.5716 19.3752 5.73731 19.375H14.754L22.749 24.3716C22.9089 24.4764 23.0256 24.6352 23.0777 24.8191C23.1299 25.0029 23.114 25.1994 23.033 25.3724C22.952 25.5455 22.8112 25.6835 22.6366 25.7612C22.462 25.8389 22.2653 25.851 22.0825 25.7953L14.2572 23.1891ZM37.5 26.25C37.4998 26.4157 37.4339 26.5746 37.3168 26.6918C37.1996 26.8089 37.0407 26.8748 36.875 26.875H36.25C35.5872 26.8757 34.9517 27.1393 34.483 27.608C34.0143 28.0767 33.7507 28.7122 33.75 29.375V35.625H30V24.375C29.9999 24.1722 29.9505 23.9724 29.856 23.7929C29.7615 23.6135 29.6248 23.4597 29.4576 23.3449C29.2904 23.23 29.0978 23.1576 28.8964 23.1338C28.6949 23.11 28.4907 23.1356 28.3014 23.2083L25.5312 24.274C25.3396 23.4781 24.8564 22.7829 24.1771 22.3259L27.9321 19.375H36.875C37.0407 19.3752 37.1996 19.4411 37.3168 19.5582C37.4339 19.6754 37.4998 19.8343 37.5 20V26.25Z" fill="url(#paint2_linear)"/>
<path d="M33.75 24.375C34.4404 24.375 35 23.8154 35 23.125C35 22.4346 34.4404 21.875 33.75 21.875C33.0596 21.875 32.5 22.4346 32.5 23.125C32.5 23.8154 33.0596 24.375 33.75 24.375Z" fill="url(#paint3_linear)"/>
<defs>
<linearGradient id="paint0_linear" x1="10.7422" y1="1.875" x2="10.7422" y2="16.875" gradientUnits="userSpaceOnUse">
<stop stop-color="#FCD302"/>
<stop offset="1" stop-color="#FA7073"/>
</linearGradient>
<linearGradient id="paint1_linear" x1="31.875" y1="1.875" x2="31.875" y2="16.875" gradientUnits="userSpaceOnUse">
<stop stop-color="#FCD302"/>
<stop offset="1" stop-color="#FA7073"/>
</linearGradient>
<linearGradient id="paint2_linear" x1="20" y1="16.875" x2="20" y2="38.125" gradientUnits="userSpaceOnUse">
<stop stop-color="#FCD302"/>
<stop offset="1" stop-color="#FA7073"/>
</linearGradient>
<linearGradient id="paint3_linear" x1="33.75" y1="21.875" x2="33.75" y2="24.375" gradientUnits="userSpaceOnUse">
<stop stop-color="#FCD302"/>
<stop offset="1" stop-color="#FA7073"/>
</linearGradient>
</defs>
</svg>
