<svg width="895" height="728" viewBox="0 0 895 728" fill="none" xmlns="http://www.w3.org/2000/svg">
<path d="M282.628 356.441L382.89 298.595L383.554 298.974L384.693 298.335L384.005 297.955L417.734 278.5L418.398 278.903L419.513 278.239L418.849 277.86L450.538 259.565H520.131H520.535L552.034 277.86L553.149 278.5L585.811 297.481L586.902 298.121L620.512 317.624L621.627 318.264L654.55 337.388L655.665 338.028L687.354 356.441L687.117 396.94L655.143 415.377L654.052 414.761L652.937 415.401L654.028 416.017L620.299 435.473L618.994 434.714L617.879 435.354L619.184 436.112L551.583 475.119L550.231 474.337L685.219 396.466L685.433 356.891L519.728 260.679H451.321L284.525 356.891L284.312 396.466L450.016 492.679H518.424L549.117 474.977L550.469 475.758L519.206 493.792H449.234L383.127 455.426L383.175 455.402L382.06 454.739L382.036 454.762L282.391 396.917L282.628 356.441Z" fill="#450F72"/>
<path d="M40.0938 531.685H180.371L346.147 435.923L347.261 436.563L181.011 532.609H40.1412C40.1886 532.301 40.1649 531.993 40.0938 531.685Z" fill="#450F72"/>
<path d="M298.754 543.226L415.454 475.782L416.569 476.422L300.343 543.605L299.679 660.624C299.157 660.624 298.635 660.647 298.113 660.695L298.754 543.226Z" fill="#450F72"/>
<path d="M40.8534 651.713L38.766 652.922L-57.6301 708.516L-59.7174 709.725L-73.7831 717.829L-74.9453 718.493L-73.8305 719.133L-72.6445 718.446L-58.6026 710.341L-56.5153 709.132L39.8809 653.538L41.9919 652.329L127.145 603.204V601.924L40.8534 651.713ZM382.059 454.762L382.035 454.786L336.232 481.233L334.145 482.441L237.796 538.083L235.709 539.292L139.361 594.934L137.273 596.142L128.023 601.474H128.71V602.351L138.388 596.758L140.475 595.55L236.824 539.908L238.911 538.699L335.26 483.057L337.347 481.849L383.15 455.402L383.173 455.378L382.059 454.762Z" fill="#450F72"/>
<path d="M127.119 601.451H127.996H128.684V602.327L128.281 675.292L64.3333 712.166C64.1672 712.047 64.0012 711.952 63.8352 711.858C63.6454 711.739 63.4319 711.644 63.2422 711.526L126.716 674.913L127.119 603.228V601.948V601.451Z" fill="#450F72"/>
<path d="M24.4397 528.604C28.0452 526.519 33.9041 526.519 37.4858 528.604C38.9802 529.481 39.8341 530.547 40.0951 531.685C40.1662 531.993 40.1899 532.301 40.1662 532.585C40.0713 533.889 39.17 535.169 37.4621 536.14C33.8566 538.226 27.9977 538.226 24.416 536.14C20.8105 534.078 20.8105 530.69 24.4397 528.604Z" fill="#450F72"/>
<path d="M50.7915 711.858C54.2072 709.891 59.6154 709.772 63.2446 711.526C63.4581 711.621 63.6478 711.739 63.8376 711.858C64.0274 711.953 64.1934 712.071 64.3357 712.166C67.4193 714.275 67.2296 717.427 63.7901 719.394C60.1847 721.479 54.3258 721.479 50.744 719.394C47.1386 717.332 47.1623 713.943 50.7915 711.858Z" fill="#450F72"/>
<path d="M292.993 662.188C294.44 661.358 296.242 660.861 298.092 660.695C298.614 660.647 299.136 660.624 299.658 660.624C301.959 660.647 304.26 661.169 306.015 662.188C309.597 664.273 309.597 667.662 305.968 669.747C302.362 671.833 296.503 671.833 292.921 669.747C289.363 667.662 289.363 664.273 292.993 662.188Z" fill="#450F72"/>
<path d="M233.141 451.676L303.066 411.342L304.418 410.56L305.533 411.2L305.295 411.342L234.303 452.292C234.255 452.244 234.184 452.221 234.113 452.173C233.828 452.007 233.496 451.818 233.141 451.676Z" fill="#450F72"/>
<path d="M894.615 153.045V158.188C893.097 156.576 893.097 154.633 894.615 153.045Z" fill="#450F72"/>
<path d="M221.091 452.173C224.388 450.278 229.535 450.112 233.141 451.676C233.497 451.818 233.829 451.984 234.137 452.173C234.208 452.197 234.256 452.245 234.327 452.292C237.743 454.377 237.648 457.695 234.113 459.733C230.508 461.819 224.649 461.819 221.067 459.733C217.462 457.648 217.486 454.259 221.091 452.173Z" fill="#450F72"/>
<path d="M785.417 8.67328L653.109 85.5009L653.584 171.523V172.21H654.604H655.149V171.879V170.599L654.675 85.8801L786.508 9.33681C786.365 9.26572 786.223 9.19463 786.081 9.09984C785.844 8.98135 785.63 8.81546 785.417 8.67328Z" fill="#450F72"/>
<path d="M740.661 284.68L651.784 336.293L652.898 336.933L741.609 285.414C741.254 285.177 740.922 284.94 740.661 284.68Z" fill="#450F72"/>
<path d="M754.984 278.091C751.379 276.006 745.52 276.006 741.938 278.091C738.854 279.869 738.427 282.618 740.657 284.68C740.942 284.94 741.25 285.177 741.606 285.414C741.725 285.485 741.843 285.556 741.985 285.628C745.591 287.713 751.45 287.713 755.032 285.628C758.613 283.566 758.59 280.177 754.984 278.091Z" fill="#450F72"/>
<path d="M799.101 1.56409C795.496 -0.521363 789.637 -0.521363 786.055 1.56409C782.711 3.50735 782.497 6.58813 785.438 8.69728C785.652 8.83947 785.865 8.98166 786.103 9.12385C786.245 9.19494 786.387 9.28974 786.53 9.36083C790.159 11.2093 795.709 11.1382 799.149 9.12385C802.731 7.0147 802.707 3.64954 799.101 1.56409Z" fill="#450F72"/>
<path d="M71.7911 152.02V157.163C73.3092 155.551 73.3092 153.608 71.7911 152.02Z" fill="#450F72"/>
</svg>
