<svg width="32" height="32" viewBox="0 0 32 32" fill="none" xmlns="http://www.w3.org/2000/svg">
<path d="M19.896 11.368H12.1014C10.572 11.368 9.33203 12.5947 9.33203 14.1067V17.96C9.33203 19.4733 10.572 20.6987 12.1014 20.6987H19.896C21.4254 20.6987 22.6654 19.472 22.6654 17.96V14.1067C22.6654 12.5933 21.4254 11.368 19.896 11.368ZM18.024 16.2213L14.3774 17.9413C14.3551 17.9519 14.3304 17.9566 14.3058 17.9551C14.2812 17.9536 14.2573 17.946 14.2365 17.9328C14.2156 17.9196 14.1984 17.9014 14.1864 17.8798C14.1745 17.8583 14.1681 17.834 14.168 17.8093V14.2627C14.1683 14.2377 14.1749 14.2132 14.1872 14.1914C14.1996 14.1697 14.2173 14.1515 14.2387 14.1386C14.26 14.1256 14.2844 14.1183 14.3093 14.1174C14.3343 14.1165 14.3591 14.122 14.3814 14.1333L18.0267 15.96C18.0507 15.9725 18.0707 15.9914 18.0846 16.0147C18.0985 16.0379 18.1057 16.0645 18.1054 16.0915C18.1051 16.1185 18.0974 16.145 18.083 16.1679C18.0687 16.1908 18.0483 16.2093 18.024 16.2213Z" fill="#BBAAE1"/>
<path d="M8.00152 5.33329C7.29428 5.33329 6.1159 5.33329 5.33485 5.33329C5.33485 6.11434 5.33485 7.29271 5.33485 7.99996V24C5.33485 24.7072 5.33485 25.8856 5.33485 26.6666C6.00156 26.6666 7.29428 26.6666 8.00152 26.6666H24.0015C24.7088 26.6666 25.8871 26.6666 26.6682 26.6666C26.6682 25.6 26.6682 24.7072 26.6682 24V7.99996C26.6682 7.29271 26.6682 6.00001 26.6682 5.33329C26.0016 5.33329 24.7088 5.33329 24.0015 5.33329H8.00152ZM8.00152 2.66662H24.0015C25.416 2.66662 28.4016 2.66667 29.3349 2.66662C29.3349 4.00001 29.3349 6.58547 29.3349 7.99996V24C29.3349 25.4144 29.3349 28 29.3349 29.3333C28.0016 29.3333 25.416 29.3333 24.0015 29.3333H8.00152C6.58703 29.3333 4.00162 29.3333 2.66797 29.3333C2.66809 27.7712 2.66819 25.4144 2.66819 24V7.99996C2.66819 6.58547 2.66803 4.80001 2.66814 2.66668C3.60175 2.66657 6.58703 2.66662 8.00152 2.66662Z" fill="#BBAAE1"/>
</svg>
