<svg width="20" height="20" viewBox="0 0 20 20" fill="none" xmlns="http://www.w3.org/2000/svg">
<path d="M0 0V20H20V0H0ZM1.81818 1.81818H18.1818V18.1818H1.81818V1.81818ZM12.4455 5.11727C10.8545 5.11727 9.52909 6.55182 9.89909 8.32182C8.86176 8.26983 7.84698 8.00013 6.92071 7.53026C5.99444 7.06039 5.17741 6.40086 4.52273 5.59455C4.28841 5.9935 4.16593 6.44823 4.16818 6.91091C4.16786 7.3405 4.27376 7.76351 4.47647 8.14227C4.67917 8.52103 4.97238 8.84379 5.33 9.08182C4.91711 9.06731 4.51358 8.95482 4.15273 8.75364V8.78364C4.15151 9.38608 4.35882 9.97038 4.73945 10.4374C5.12009 10.9043 5.65059 11.2252 6.24091 11.3455C5.85638 11.4451 5.45502 11.4615 5.06364 11.3936C5.23061 11.9118 5.55542 12.3648 5.99262 12.6892C6.42982 13.0136 6.9575 13.1931 7.50182 13.2027C6.57857 13.9266 5.43865 14.3188 4.26546 14.3164C4.05536 14.3183 3.84532 14.3083 3.63636 14.2864C4.83151 15.0526 6.22215 15.4582 7.64182 15.4545C12.4382 15.4545 15.0636 11.4809 15.0636 8.03273C15.0636 7.92091 15.0636 7.80727 15.0545 7.69546C15.5652 7.32345 16.0075 6.86577 16.3618 6.34273C15.8846 6.5531 15.3782 6.6901 14.86 6.74909C15.4039 6.42565 15.8112 5.91495 16.0055 5.31273C15.4945 5.61642 14.9347 5.82898 14.3509 5.94091C14.1068 5.68 13.8115 5.47221 13.4835 5.3305C13.1555 5.18879 12.8018 5.1162 12.4445 5.11727H12.4455Z" fill="#BBAAE1"/>
</svg>
