<svg width="32" height="32" viewBox="0 0 32 32" fill="none" xmlns="http://www.w3.org/2000/svg">
<path d="M14.2581 11.916V13.752H12.9141V15.996H14.2581V22.6667H17.0207V15.996H18.8741C18.8741 15.996 19.0487 14.92 19.1327 13.7427H17.0314V12.2093C17.0314 11.9787 17.3327 11.6707 17.6314 11.6707H19.1354V9.33333H17.0887C14.1901 9.33333 14.2581 11.58 14.2581 11.916Z" fill="#BBAAE1"/>
<path d="M8.00141 5.33333C7.29417 5.33333 6.1158 5.33333 5.33475 5.33333C5.33475 6.11438 5.33475 7.29275 5.33475 8V24C5.33475 24.7072 5.33475 26 5.33475 26.6667C6.00156 26.6667 7.29417 26.6667 8.00141 26.6667H24.0014C24.7087 26.6667 26.0016 26.6667 26.6681 26.6667C26.6681 25.8856 26.6681 24.7072 26.6681 24V8C26.6681 7.29275 26.6681 5.99996 26.6681 5.33333C25.887 5.33333 24.7087 5.33333 24.0014 5.33333H8.00141ZM8.00141 2.66666H24.0014C25.4159 2.66666 28.4016 2.66663 29.3347 2.6667C29.3347 4.39999 29.3347 6.58551 29.3347 8V24C29.3347 25.4145 29.3347 27.7712 29.3347 29.3333C28.0016 29.3333 25.4159 29.3333 24.0014 29.3333H8.00141C6.58693 29.3333 4.00156 29.3333 2.66824 29.3333C2.66778 28 2.66808 25.4145 2.66808 24V8C2.66808 6.58551 2.66788 4.22875 2.66801 2.6667C3.60162 2.66663 6.58693 2.66666 8.00141 2.66666Z" fill="#BBAAE1"/>
</svg>
