<svg width="32" height="32" viewBox="0 0 32 32" fill="none" xmlns="http://www.w3.org/2000/svg">
<path d="M22.6654 17.5067V22.436H19.808V17.836C19.808 16.6813 19.3947 15.8933 18.36 15.8933C17.5707 15.8933 17.1 16.424 16.8934 16.9387C16.8187 17.1227 16.7987 17.3787 16.7987 17.6347V22.436H13.94C13.94 22.436 13.9787 14.6467 13.94 13.84H16.7987V15.0573L16.78 15.0853H16.7987V15.0587C17.1787 14.472 17.856 13.6373 19.3747 13.6373C21.2547 13.6373 22.6654 14.8667 22.6654 17.5067ZM10.9494 9.69466C9.97203 9.69466 9.33203 10.3373 9.33203 11.18C9.33203 12.0067 9.95337 12.6667 10.912 12.6667H10.9307C11.928 12.6667 12.548 12.0053 12.548 11.18C12.5294 10.3373 11.928 9.69466 10.9494 9.69466ZM9.50136 22.436H12.36V13.84H9.50136V22.436Z" fill="#BBAAE1"/>
<path d="M8.00152 5.33329C7.29428 5.33329 6.1159 5.33329 5.33485 5.33329C5.33485 6.11434 5.33485 7.29271 5.33485 7.99996V24C5.33485 24.7072 5.33485 25.8856 5.33485 26.6666C6.00156 26.6666 7.29428 26.6666 8.00152 26.6666H24.0015C24.7088 26.6666 25.8871 26.6666 26.6682 26.6666C26.6682 25.6 26.6682 24.7072 26.6682 24V7.99996C26.6682 7.29271 26.6682 6.00001 26.6682 5.33329C26.0016 5.33329 24.7088 5.33329 24.0015 5.33329H8.00152ZM8.00152 2.66662H24.0015C25.416 2.66662 28.4016 2.66667 29.3349 2.66662C29.3349 4.00001 29.3349 6.58547 29.3349 7.99996V24C29.3349 25.4144 29.3349 28 29.3349 29.3333C28.0016 29.3333 25.416 29.3333 24.0015 29.3333H8.00152C6.58703 29.3333 4.00162 29.3333 2.66797 29.3333C2.66809 27.7712 2.66819 25.4144 2.66819 24V7.99996C2.66819 6.58547 2.66803 4.80001 2.66814 2.66668C3.60175 2.66657 6.58703 2.66662 8.00152 2.66662Z" fill="#BBAAE1"/>
</svg>
