<svg width="92" height="92" viewBox="0 0 92 92" fill="none" xmlns="http://www.w3.org/2000/svg">
<circle cx="46" cy="46" r="46" fill="#0A66C2"/>
<path d="M72.6875 72.4425H61.6629V55.2289C61.6629 51.1242 61.5894 45.8401 55.9289 45.8401C50.1869 45.8401 49.3084 50.3124 49.3084 54.9301V72.4414H38.2837V37.0433H48.8673V41.8808H49.0155C50.0747 40.0752 51.6052 38.5899 53.4441 37.5829C55.283 36.576 57.3614 36.0852 59.458 36.1628C70.6319 36.1628 72.6921 43.4906 72.6921 53.0237L72.6875 72.4425ZM25.8442 32.2046C24.5788 32.2048 23.3418 31.8309 22.2896 31.1302C21.2374 30.4295 20.4172 29.4335 19.9328 28.268C19.4483 27.1025 19.3214 25.82 19.568 24.5826C19.8147 23.3453 20.4238 22.2086 21.3184 21.3163C22.213 20.4241 23.3528 19.8164 24.5938 19.5701C25.8348 19.3237 27.1212 19.4498 28.2903 19.9324C29.4594 20.415 30.4588 21.2323 31.1619 22.2812C31.8651 23.33 32.2406 24.5632 32.2408 25.8248C32.241 26.6624 32.0756 27.4919 31.7542 28.2659C31.4328 29.0398 30.9618 29.7431 30.3678 30.3355C29.7738 30.9279 29.0686 31.3979 28.2924 31.7186C27.5163 32.0393 26.6844 32.2044 25.8442 32.2046ZM31.3565 72.4425H20.3204V37.0433H31.3565V72.4425Z" fill="white"/>
<path d="M25.8442 32.2046C24.5788 32.2048 23.3418 31.8309 22.2896 31.1302C21.2374 30.4295 20.4172 29.4335 19.9328 28.268C19.4483 27.1025 19.3214 25.82 19.568 24.5826C19.8147 23.3453 20.4238 22.2086 21.3184 21.3163C22.213 20.4241 23.3528 19.8164 24.5938 19.5701C25.8348 19.3237 27.1212 19.4498 28.2903 19.9324C29.4594 20.415 30.4588 21.2323 31.1619 22.2812C31.8651 23.33 32.2406 24.5632 32.2408 25.8248C32.241 26.6624 32.0756 27.4919 31.7542 28.2659C31.4328 29.0398 30.9618 29.7431 30.3678 30.3355C29.7738 30.9279 29.0686 31.3979 28.2924 31.7186C27.5163 32.0393 26.6844 32.2044 25.8442 32.2046Z" fill="white"/>
<path d="M31.3565 72.4425H20.3204V37.0433H31.3565V72.4425Z" fill="white"/>
<path d="M72.6875 72.4425H61.6629V55.2289C61.6629 51.1242 61.5894 45.8401 55.9289 45.8401C50.1869 45.8401 49.3084 50.3124 49.3084 54.9301V72.4414H38.2837V37.0433H48.8673V41.8808H49.0155C50.0747 40.0752 51.6052 38.5899 53.4441 37.5829C55.283 36.576 57.3614 36.0852 59.458 36.1628C70.6319 36.1628 72.6921 43.4906 72.6921 53.0237L72.6875 72.4425Z" fill="white"/>
</svg>
