<svg width="16" height="16" viewBox="0 0 16 16" fill="none" xmlns="http://www.w3.org/2000/svg">
<path d="M15.3001 2.53368L13.1704 0.405949C12.9104 0.145982 12.5624 0 12.1945 0C11.8265 0 11.4786 0.143982 11.2186 0.405949L8.92488 2.69566C8.66492 2.95563 8.51894 3.30559 8.51894 3.67354C8.51894 4.0435 8.66292 4.38945 8.92488 4.65142L10.7167 6.44519C10.3085 7.39625 9.72199 8.26036 8.98888 8.99088C8.25497 9.72878 7.39707 10.3107 6.44519 10.7227L4.65342 8.92888C4.39345 8.66892 4.04549 8.52294 3.67754 8.52294C3.49605 8.52226 3.31625 8.55782 3.14868 8.62753C2.98111 8.69724 2.82913 8.79969 2.70166 8.92888L0.405949 11.2186C0.145982 11.4786 0 11.8285 0 12.1965C0 12.5664 0.143982 12.9124 0.405949 13.1744L2.53368 15.3021C2.97763 15.746 3.58955 16 4.21747 16C4.34746 16 4.47344 15.99 4.60142 15.968C7.24909 15.5321 9.87677 14.1222 11.9985 12.0025C14.1182 9.87877 15.5261 7.25109 15.966 4.60143C16.092 3.84952 15.84 3.07562 15.3001 2.53368ZM14.5482 4.36346C14.1582 6.72116 12.8904 9.07287 10.9806 10.9826C9.07087 12.8924 6.72116 14.1602 4.36345 14.5502C4.06749 14.6002 3.76353 14.5002 3.54756 14.2862L1.45782 12.1965L3.67354 9.97875L6.06924 12.3785L6.08724 12.3965L6.51919 12.2365C7.82888 11.7549 9.0182 10.9944 10.0047 10.0075C10.9913 9.02064 11.7514 7.83105 12.2325 6.52119L12.3925 6.08924L9.97675 3.67554L12.1925 1.45782L14.2822 3.54756C14.4982 3.76353 14.5982 4.06749 14.5482 4.36346Z" fill="#FB9748"/>
</svg>
