<svg width="24" height="24" viewBox="0 0 24 24" fill="none" xmlns="http://www.w3.org/2000/svg">
<path d="M10 18C11.775 17.9996 13.4988 17.4054 14.897 16.312L19.293 20.708L20.707 19.294L16.311 14.898C17.405 13.4997 17.9996 11.7754 18 10C18 5.589 14.411 2 10 2C5.589 2 2 5.589 2 10C2 14.411 5.589 18 10 18ZM10 4C13.309 4 16 6.691 16 10C16 13.309 13.309 16 10 16C6.691 16 4 13.309 4 10C4 6.691 6.691 4 10 4Z" fill="#BBAAE1"/>
<path d="M11.4138 8.58596C11.7928 8.96596 12.0018 9.46796 12.0018 9.99996H14.0018C14.0027 9.47439 13.8994 8.95386 13.6979 8.46845C13.4963 7.98304 13.2006 7.54239 12.8278 7.17196C11.3138 5.65996 8.68878 5.65996 7.17578 7.17196L8.58778 8.58796C9.34778 7.82996 10.6578 7.83196 11.4138 8.58596Z" fill="#BBAAE1"/>
</svg>
