<svg width="51" height="61" viewBox="0 0 51 61" fill="none" xmlns="http://www.w3.org/2000/svg">
<g opacity="0.25">
<path fill-rule="evenodd" clip-rule="evenodd" d="M42.8934 8.77283L42.8853 8.78041L42.8773 8.78829C42.5804 9.08346 42.1603 9.08346 41.8634 8.78829C37.6386 4.58835 31.7273 1.95901 25.2558 1.95901C18.793 1.95901 12.9425 4.52695 8.71824 8.66435C8.41847 8.92438 7.97686 8.92514 7.67626 8.66664C7.14092 8.12143 7.17415 7.31142 7.72716 6.7979C12.2662 2.60433 18.4101 0 25.2558 0C32.0429 0 38.2423 2.65612 42.8388 6.90653C43.4057 7.43262 43.4113 8.29234 42.8934 8.77283ZM43.5204 23.7785L43.5205 23.7802L43.5213 23.7881C43.5431 24.0271 43.7893 24.2489 44.0509 24.2489C44.8977 24.2489 45.494 23.4895 45.356 22.7692L45.3543 22.7605L45.3529 22.7517C43.8155 13.3181 35.5379 6.13037 25.5945 6.13037C14.5891 6.13037 5.62536 15.0071 5.62536 25.9698V32.3943C5.62536 32.7417 5.93746 33.0691 6.31661 33.0691C7.02455 33.0691 7.6103 32.4693 7.6103 31.7954V26.4054C7.6103 16.4788 15.5504 8.19159 25.5327 8.07876C34.7745 7.96627 42.4395 14.8993 43.5192 23.769L43.5204 23.7785ZM7.47904 37.2542L7.47889 37.2525L7.47816 37.2446C7.45631 37.0056 7.21014 36.7838 6.94855 36.7838C6.10174 36.7838 5.50543 37.5432 5.64342 38.2635L5.6451 38.2722L5.64653 38.281C7.18391 47.7146 15.4615 54.9023 25.4049 54.9023C36.4103 54.9023 45.3741 46.0256 45.3741 35.0629V28.6384C45.3741 28.291 45.062 27.9636 44.6828 27.9636C43.9749 27.9636 43.3891 28.5634 43.3891 29.2373V34.6273C43.3891 44.5539 35.4491 52.8411 25.4667 52.9539C16.2249 53.0664 8.55994 46.1334 7.4802 37.2637L7.47904 37.2542ZM25.6217 14.1231L25.6205 14.123C21.2684 13.8953 17.3791 16.1142 15.1484 19.5197C14.9122 19.8486 14.4973 19.9287 14.1932 19.75C13.548 19.346 13.3945 18.5473 13.7931 18.0069L13.7963 18.0025L13.7995 17.998C16.2794 14.4836 20.3966 12.1734 25.0446 12.1729C32.5866 12.2263 38.5519 18.52 38.5519 26.0239V35.2251C38.5519 35.7182 38.5514 36.1254 38.5004 36.5818C38.4351 37.1659 37.7684 37.5286 37.1995 37.1751L37.1955 37.1726L37.1915 37.1703C36.8254 36.9519 36.5927 36.5062 36.6202 36.0575C36.6788 35.7452 36.6788 35.441 36.6787 35.1897V25.9695C36.6787 19.7613 31.8684 14.4649 25.6217 14.1231ZM25.3789 46.9092L25.3777 46.9091C19.1311 46.5673 14.3207 41.2709 14.3207 35.0628L14.3207 25.8425V25.8425C14.3206 25.5912 14.3206 25.2871 14.3792 24.9747C14.4067 24.5261 14.174 24.0803 13.8079 23.862L13.8039 23.8596L13.8 23.8571C13.231 23.5036 12.5643 23.8663 12.499 24.4504C12.448 24.9068 12.4476 25.314 12.4476 25.8071V35.0083C12.4476 42.5122 18.4128 48.806 25.9548 48.8594C30.6028 48.8588 34.72 46.5486 37.1999 43.0342L37.2031 43.0297L37.2063 43.0253C37.6049 42.485 37.4515 41.6862 36.8062 41.2822C36.5021 41.1035 36.0872 41.1837 35.851 41.5125C33.6203 44.918 29.731 47.1369 25.3789 46.9092ZM42.8853 52.2196L42.8934 52.2272C43.4113 52.7077 43.4057 53.5674 42.8388 54.0935C38.2423 58.3439 32.0429 61 25.2558 61C18.4101 61 12.2662 58.3957 7.72716 54.2021C7.17415 53.6886 7.14092 52.8786 7.67626 52.3334C7.97686 52.0749 8.41847 52.0756 8.71824 52.3357C12.9425 56.4731 18.793 59.041 25.2558 59.041C31.7273 59.041 37.6386 56.4117 41.8634 52.2117C42.1603 51.9165 42.5804 51.9165 42.8773 52.2117L42.8853 52.2196ZM0 24.8808C0 20.284 1.27527 15.9575 3.55529 12.3204L3.55863 12.3151L3.56188 12.3097C3.97614 11.6233 4.95552 11.4827 5.54725 12.071L5.56727 12.0909L5.58874 12.1092C5.6547 12.1654 5.7082 12.3359 5.61107 12.4976C3.23443 16.0465 1.87767 20.3248 1.87767 24.8808V35.9876C1.87767 40.2134 3.06797 44.1538 5.10111 47.5805C5.36987 48.0522 5.30451 48.6576 4.89005 49.0696C4.55355 49.4041 3.96262 49.3316 3.72615 48.9398L3.72422 48.9365L3.72058 48.9307C1.38065 45.177 0 40.74 0 35.9876V24.8808ZM47.4429 12.3202C49.723 15.9574 50.9982 20.2838 50.9982 24.8806V35.9874C50.9982 40.7398 49.6176 45.1769 47.2777 48.9305L47.274 48.9363L47.2721 48.9396C47.0356 49.3314 46.4447 49.4039 46.1082 49.0694C45.6937 48.6574 45.6284 48.052 45.8971 47.5803C47.9303 44.1536 49.1206 40.2132 49.1206 35.9874V24.8806C49.1206 20.3246 47.7638 16.0463 45.3872 12.4974C45.29 12.3357 45.3435 12.1652 45.4095 12.109L45.431 12.0907L45.451 12.0708C46.0427 11.4825 47.0221 11.6231 47.4363 12.3095L47.4396 12.3149L47.4429 12.3202Z" fill="black"/>
<path fill-rule="evenodd" clip-rule="evenodd" d="M26.2543 20.1797C29.7108 20.5867 32.2578 23.9325 32.2578 27.6852C32.2578 28.4538 31.6665 28.3634 30.9843 28.3634C30.5295 28.3634 30.1202 27.9565 30.1202 27.4139V27.5043C30.1202 24.5655 27.8007 22.2143 25.0718 22.4856C22.7068 22.7117 20.8876 25.0176 20.8876 27.64L20.8864 27.7303C20.8864 29.0415 21.9154 30.0815 23.116 30.0815L29.9837 30.0815C31.2572 30.0815 32.2577 31.0762 32.2577 32.3421V34.6932C32.2577 37.8582 29.7563 40.8423 26.6636 40.8423H24.3441C21.2514 40.8423 18.75 37.813 18.75 34.6932L18.75 27.5043C18.75 23.1638 22.2066 19.6824 26.2543 20.1797ZM26.5272 37.2252V35.7332C27.0729 35.3715 27.4368 34.7837 27.4368 34.0603C27.4368 32.8395 26.2998 31.8448 25.0263 32.1613C24.3441 32.3421 23.7983 32.8847 23.6164 33.5629C23.389 34.4672 23.7529 35.281 24.4351 35.7332V37.2704C24.4351 37.9486 25.0718 38.4912 25.754 38.3103C26.2088 38.1747 26.5272 37.7226 26.5272 37.2252Z" fill="black"/>
</g>
</svg>
